<svg xmlns="http://www.w3.org/2000/svg"  viewBox="0 0 32 32" width="32px" height="32px" fill-rule="evenodd" clip-rule="evenodd" baseProfile="basic"><path fill="#26659f" fill-rule="evenodd" d="M3.003,27.001v-22h2v-2	h22v2h2v22h-2v2h-22v-2H3.003z" clip-rule="evenodd"/><path fill="#e6e5e5" fill-rule="evenodd" d="M13.001,13.003v1.999	h2.001v-1.999H13.001z" clip-rule="evenodd"/><path fill="#e6e5e5" fill-rule="evenodd" d="M13.001,17.003v1.999	h2.001v-1.999H13.001z" clip-rule="evenodd"/><path fill="#e6e5e5" fill-rule="evenodd" d="M19.001,19.003v1.999	h4.001v-1.999H19.001z" clip-rule="evenodd"/><path fill="#e6e5e5" fill-rule="evenodd" d="M19.001,9.003v1.999	h4.001V9.003H19.001z" clip-rule="evenodd"/><path fill="#e6e5e5" fill-rule="evenodd" d="M13.003,21.001h-6v-10h6	v2h-4v2h4v2h-4v2h4V21.001z" clip-rule="evenodd"/><path fill="#e6e5e5" fill-rule="evenodd" d="M17.003,19.001v-4h2v-2	h4v2h2v2h-6v2H17.003z" clip-rule="evenodd"/></svg>