<svg version="1.2" xmlns="http://www.w3.org/2000/svg" viewBox="0 0 50 57" width="50" height="57">
	<title>notes-icon</title>
	<style>
		.s0 { fill: #0c0c0c } 
		.s1 { fill: #020202 } 
		.s2 { fill: #1a1a1a } 
		.s3 { fill: #060606 } 
		.s4 { fill: #161616 } 
		.s5 { fill: #141414 } 
	</style>
	<g id="Layer 1">
		<path class="s0" d="m5.25 0c14.16 0 28.32 0 42.91 0q0 0.56 0 1.13 0.62 0 1.26 0c0 17.85 0 35.7 0 54.08q-0.62 0.07-1.26 0.13 0 0.56 0 1.13c-14.16 0-28.32 0-42.91 0q0-0.56 0-1.13c-0.28 0-0.28 0-0.56 0.01q-0.29 0-0.57-0.01c-0.23-0.23-0.14-0.55-0.14-0.85q0-0.16 0-0.31 0-0.17 0-0.34 0-0.54 0-1.08 0-0.38 0-0.75 0-0.99 0-1.98 0.01-1.01 0.01-2.02 0-1.98 0-3.96-1.29 0-2.63 0 0-0.56 0-1.13-0.62 0-1.26 0 0-1.8 0-3.64 0.56-0.06 1.13-0.13 0.06-0.49 0.13-1c0.63-0.13 0.63-0.13 2.63 0q0-2.16 0-4.39-1.29 0-2.63 0-0.06-0.62-0.13-1.26-0.55 0-1.13 0 0-1.85 0-3.76 0.62 0 1.26 0-0.01-0.25-0.01-0.5 0-0.25 0.01-0.51c0.12-0.12 0.12-0.12 0.37-0.14q0.15 0 0.31 0.01 0.16 0 0.31 0 0.2 0 0.4 0 0.61 0 1.24 0.01 0-1.55 0-3.14-1.29 0-2.63 0 0-0.62 0-1.25c-0.28 0-0.28 0-0.56 0q-0.29 0.01-0.57 0c-0.13-0.13-0.13-0.13-0.14-0.47q0-0.22 0-0.44c0-0.24 0-0.24 0-0.48q0-0.25 0.01-0.5 0-0.26 0-0.51 0-0.62 0-1.24 0.56-0.07 1.13-0.13c0.06-0.5 0.06-0.5 0.13-1q1.3 0 2.63 0 0-2.17 0-4.4-1.29 0-2.63 0-0.06-0.55-0.13-1.12-0.55-0.07-1.13-0.13 0-1.79 0-3.64c0.56-0.06 0.56-0.06 1.13-0.12q0.03-0.25 0.06-0.5c0.05-0.49 0.05-0.49 0.19-0.63q1.24 0 2.51 0c0-2.24 0-4.48 0-6.78q0.62 0 1.26 0 0-0.56 0-1.13zm1.5 2.76c0 2.11 0 4.22 0 6.4q1.36 0 2.76 0 0 0.62 0 1.26 0.68 0 1.38 0 0 1.17 0 2.38-0.61 0-1.25 0 0 0.62 0 1.25-1.05 0-2.13 0 0 2.66 0 5.4 0.99 0.12 2 0.25 0.07 0.56 0.13 1.13 0.62 0 1.25 0 0 1.18 0 2.39-0.61 0-1.25 0 0 0.61 0 1.25-1.05 0-2.13 0 0 2.16 0 4.39 0.99 0 2 0 0 0.62 0 1.26 0.68 0 1.38 0 0 1.17 0 2.38-0.61 0-1.25 0 0 0.62 0 1.26-1.05 0-2.13 0 0 2.72 0 5.52 0.99 0 2 0 0 0.62 0 1.25 0.68 0 1.38 0 0 1.18 0 2.39-0.61 0-1.25 0 0 0.55 0 1.13-1.05 0-2.13 0c0 3.1 0 6.21 0 9.41 12.96 0 25.92 0 39.27 0 0-16.73 0-33.46 0-50.7-13.21 0-26.42 0-40.03 0zm-3.76 7.78q-0.06 0.43-0.13 0.88 2.66 0 5.4 0 0-0.43 0-0.88-2.6 0-5.27 0zm-0.13 10.42q0 0.37 0 0.75c0.52 0.14 1.03 0.14 1.56 0.14 0.15 0 0.15 0 0.31 0q0.32 0 0.64 0 0.5 0 0.99 0 0.31 0 0.63 0 0.14 0 0.3 0c0.5 0.01 0.5 0.01 0.97-0.14q0-0.37 0-0.75-2.66 0-5.4 0zm0.13 9.41q0 0.37 0 0.75 2.59 0 5.27 0 0-0.37 0-0.75-2.6 0-5.27 0zm-0.13 10.41q0 0.31 0 0.63 2.66 0 5.4 0 0-0.31 0-0.63-2.66 0-5.4 0z"/>
		<path class="s1" d="m17.67 44.41c0.14 0 0.14 0 0.27 0q0.15 0 0.29 0 0.49 0 0.97 0 0.34 0 0.69 0 0.94 0 1.88 0 0.98 0 1.96 0 1.64 0 3.29 0 1.9 0 3.81 0 1.63 0 3.27 0 0.98 0 1.95 0 0.92 0 1.84 0 0.34 0 0.68 0 0.45 0 0.91 0 0.14 0 0.28 0c0.61 0 0.61 0 0.75 0.14q0.02 0.5 0 1 0.56 0.06 1.13 0.13 0 0.62 0 1.25-5 0.01-10.01 0.01-2.32 0-4.64 0-2.03 0-4.05 0-1.07 0-2.15 0.01-1 0-2.01 0-0.37 0-0.74 0-0.51 0-1.01 0c-0.15 0-0.15 0-0.3 0-0.68 0-0.68 0-0.82-0.14q-0.01-0.29-0.01-0.57 0-0.15 0-0.31c0.01-0.25 0.01-0.25 0.14-0.38q0.44-0.01 0.88 0-0.01-0.24-0.01-0.49 0-0.26 0.01-0.51c0.21-0.21 0.47-0.14 0.75-0.14z"/>
		<path class="s2" d="m17.67 27.47q0.14 0 0.28 0c0.14 0 0.14 0 0.29 0q0.49 0 0.97 0 0.35 0 0.7 0 0.94 0 1.89 0 0.98 0 1.97 0 1.87 0 3.73 0 2.13 0 4.26 0.01 4.37 0 8.75 0 0.06 0.5 0.13 1.01 0.21 0.02 0.43 0.05c0.44 0.07 0.44 0.07 0.57 0.2q0.02 0.28 0.02 0.56 0 0.15 0 0.31c-0.02 0.26-0.02 0.26-0.15 0.38q-0.49 0.02-0.98 0.02-0.15 0-0.31 0-0.53 0-1.06 0-0.38 0-0.75 0-1.03 0-2.05-0.01-1.07 0-2.14 0-2.03 0-4.06 0-2.31 0-4.62 0-4.75 0-9.5-0.01 0-0.68 0-1.38 0.43 0 0.88 0-0.01-0.24-0.01-0.49 0-0.26 0.01-0.51c0.21-0.21 0.47-0.14 0.75-0.14z"/>
		<path class="s3" d="m17.67 18.93c0.14 0 0.14 0 0.27 0 0.15 0 0.15 0 0.29 0q0.49 0 0.97 0 0.34 0 0.69 0 0.94 0 1.88 0 0.98 0 1.96 0 1.64 0 3.29 0 1.9 0 3.81 0 1.63 0 3.27 0 0.98 0 1.95 0 0.92 0 1.84 0 0.34 0 0.68 0 0.45 0 0.91 0 0.14 0 0.28 0c0.61 0 0.61 0 0.75 0.14q0.02 0.51 0 1.01 0.24-0.01 0.49-0.01 0.26 0 0.51 0.01c0.33 0.32 0.13 0.92 0.13 1.38-8.45 0-16.9 0-25.6 0q0-0.68 0-1.38 0.43 0 0.88 0-0.01-0.25-0.01-0.5 0-0.25 0.01-0.51c0.21-0.21 0.47-0.14 0.75-0.14z"/>
		<path class="s4" d="m17.67 10.4c0.14 0 0.14 0 0.27 0q0.15 0 0.29 0 0.49 0 0.97 0 0.34 0 0.69 0 0.94 0 1.88 0 0.98 0 1.96 0 1.64 0 3.29 0 1.9 0 3.81 0 1.63 0 3.27 0 0.98 0 1.95 0 0.92 0 1.84 0 0.34 0 0.68 0 0.45 0 0.91 0 0.14 0 0.28 0c0.61 0 0.61 0 0.75 0.14q0.02 0.5 0 1 0.56 0.07 1.13 0.13 0 0.62 0 1.26c-8.45 0-16.9 0-25.6 0-0.13-1.01-0.13-1.01 0-1.39q0.43 0 0.88 0-0.01-0.24-0.01-0.49 0-0.25 0.01-0.51c0.21-0.21 0.47-0.14 0.75-0.14z"/>
		<path class="s5" d="m16.92 36.01c7.78 0 15.57 0 23.59 0q0 0.56 0 1.13 0.24 0 0.49 0 0.26-0.01 0.51 0c0.13 0.13 0.13 0.13 0.13 1.26-8.45 0-16.9 0-25.6 0-0.14-0.85-0.14-0.85 0-1.26q0.43 0 0.88 0 0-0.55 0-1.13z"/>
	</g>
</svg>