<svg xmlns="http://www.w3.org/2000/svg"  viewBox="0 0 32 32" width="32px" height="32px" fill-rule="evenodd" clip-rule="evenodd" baseProfile="basic"><path fill="#e41e2f" fill-rule="evenodd" d="M3.997,21.996v-12h2v-2	h2v-2h2v-2h12v2h2v2h2v2h2v12h-2v2h-2v2h-2v2h-8l-1-1l-1,1h-2v-2h-2v-2h-2v-2H3.997z" clip-rule="evenodd"/><path fill="#e6e5e5" fill-rule="evenodd" d="M9.996,9.997v1.999	h2.001V9.997H9.996z" clip-rule="evenodd"/><path fill="#e6e5e5" fill-rule="evenodd" d="M19.996,9.997v1.999	h2.001V9.997H19.996z" clip-rule="evenodd"/><path fill="#e6e5e5" fill-rule="evenodd" d="M11.996,7.997v1.999	h8.001V7.997H11.996z" clip-rule="evenodd"/><path fill="#e6e5e5" fill-rule="evenodd" d="M7.996,11.997v7.999	h2.001v-7.999H7.996z" clip-rule="evenodd"/><path fill="#e6e5e5" fill-rule="evenodd" d="M21.996,11.997v7.999	h2.001v-7.999H21.996z" clip-rule="evenodd"/><path fill="#e6e5e5" fill-rule="evenodd" d="M11.997,27.996v-8h2v-2	h-2v-4h2v-2h2v8h6v2h-4v2h-2v-2h-2v6H11.997z" clip-rule="evenodd"/></svg>