<svg xmlns="http://www.w3.org/2000/svg"  viewBox="0 0 32 32" width="32px" height="32px" fill-rule="evenodd" clip-rule="evenodd" baseProfile="basic"><path fill="#e41e2f" fill-rule="evenodd" d="M2.997,28.996v-2h2v-6	h-2v-10h2v-4h2v-2h4v-2h10v4l2-2h2v2h2v4h2v10h-2v4h-2v2h-4v2H2.997z" clip-rule="evenodd"/><path fill="#706d67" fill-rule="evenodd" d="M14.996,8.997v2.999	h2.001V8.997H14.996z" clip-rule="evenodd"/><path fill="#b6b5b5" fill-rule="evenodd" d="M24.997,14.996v-4h-4	l-2,2l4,4L24.997,14.996z" clip-rule="evenodd"/><path fill="#b6b5b5" fill-rule="evenodd" d="M6.997,14.996v-4h4l2,2	l-4,4L6.997,14.996z" clip-rule="evenodd"/><path fill="#e6e5e5" fill-rule="evenodd" d="M10.997,24.996v-2h-2v-2	h-2v-6h2v-2h2v-2h10v2h2v2h2v6h-2v2h-2v2H10.997z" clip-rule="evenodd"/><path fill="#ff00fc" fill-rule="evenodd" d="M16.997,8.996v-2h3l-1,2	H16.997z" clip-rule="evenodd"/><path fill="#706d67" fill-rule="evenodd" d="M16.997,6.996h3l-1,2h-2	V6.996z" clip-rule="evenodd"/><path fill="#e6e5e5" fill-rule="evenodd" d="M18.996,4.996v4.001	h4.001V4.996H18.996z" clip-rule="evenodd"/><path fill="#e41e2f" fill-rule="evenodd" d="M10.996,14.997v3.999	h2.001v-3.999H10.996z" clip-rule="evenodd"/><path fill="#706d67" fill-rule="evenodd" d="M12.996,20.997v1.999	h6.001v-1.999H12.996z" clip-rule="evenodd"/><path fill="#e41e2f" fill-rule="evenodd" d="M18.996,14.997v3.999	h2.001v-3.999H18.996z" clip-rule="evenodd"/></svg>