<svg xmlns="http://www.w3.org/2000/svg"  viewBox="0 0 32 32" width="32px" height="32px" baseProfile="basic"><polygon fill="#91c14b" points="4,22 4,10 6,10 6,8 8,8 8,6 10,6 10,4 22,4 22,6 24,6 24,8 26,8 26,10 28,10 28,22 26,22 26,24 24,24 24,26 22,26 22,28 10,28 10,26 8,26 8,24 6,24 6,22"/><rect width="4" height="2" x="11" y="18" fill="#e6e5e5"/><rect width="4" height="2" x="15" y="20" fill="#e6e5e5"/><rect width="7" height="2" x="10" y="14" fill="#e6e5e5"/><rect width="5" height="2" x="17" y="16" fill="#e6e5e5"/><rect width="10" height="2" x="9" y="10" fill="#e6e5e5"/><rect width="4" height="2" x="19" y="12" fill="#e6e5e5"/></svg>