<svg xmlns="http://www.w3.org/2000/svg"  viewBox="0 0 32 32" width="32px" height="32px" fill-rule="evenodd" clip-rule="evenodd" baseProfile="basic"><path fill="#b6b5b5" fill-rule="evenodd" d="M1.992,29.992v-20h2v-2	h2v-2h2v-2h2v-2h12v2h2v2h2v2h2v2h2v12h-2v2h-2v2h-2v2h-2v2H1.992z" clip-rule="evenodd"/><path fill="#e6e5e5" fill-rule="evenodd" d="M3.992,27.992v-18h2v-2	h2v-2h2v-2h12v2h2v2h2v2h2v12h-2v2h-2v2h-2v2H3.992z" clip-rule="evenodd"/><path fill="#00953f" fill-rule="evenodd" d="M5.992,19.992v-8h2v-2h2	v-2h2v-2h8v2h2v2h2v2h2v8h-2v2h-2v2h-2v2h-8v-2h-4v-4H5.992z" clip-rule="evenodd"/><path fill="#e6e5e5" fill-rule="evenodd" d="M9.992,15.992v-4h2v-2	l4,0.005v4h-2v1.995h2v2l2,0.005v-2h4v3.995h-2v2h-4v-2h-2v-2h-2v-2H9.992z" clip-rule="evenodd"/><path fill="#00953f" fill-rule="evenodd" d="M5.989,21.992v3.999	h4.004v-3.999H5.989z" clip-rule="evenodd"/></svg>